# xmcd
#
# Track frame offsets:
#       150
#       16727
#       32200
#       44847
#       61375
#       80015
#       98515
#       113647
#       129340
#       145895
#       163100
#       179000
#       195405
#
# Disc length: 2849 seconds
#
# Revision: 1
# Processed by: cddbd v1.5.1PL0 Copyright (c) Steve Scherf et al.
# Submitted via: MusiCat 1.1
#
DISCID=ae0b1f0d
DTITLE=Various Artist - Razor and Tie - Music Licensing Sampler 2003
DYEAR=1900
DGENRE=
TTITLE0=Brand New - Jude Law and a semester abroad
TTITLE1=Brand New - Last chance to lose your keys
TTITLE2=Dar Williams - I saw a bird fly away
TTITLE3=Dar Williams - Closer to me
TTITLE4=Yerba Buena - Guajira (I love u 2 much)
TTITLE5=Yerba Buena - Wassamatter baby
TTITLE6=E Town Concrete - More than incredible
TTITLE7=E Town Concrete - Doormats
TTITLE8=Prince Paul - Make room
TTITLE9=Prince Paul - What I need
TTITLE10=Marty Lloyd - Justified
TTITLE11=Marty Lloyd - Come to me
TTITLE12=The Clarks - Hey you
EXTD=\n\n
EXTT0=
EXTT1=
EXTT2=
EXTT3=
EXTT4=
EXTT5=
EXTT6=
EXTT7=
EXTT8=
EXTT9=
EXTT10=
EXTT11=
EXTT12=
PLAYORDER=
